<mxfile host="app.diagrams.net" agent="Mozilla/5.0 (Windows NT 10.0; Win64; x64) AppleWebKit/537.36 (KHTML, like Gecko) Chrome/136.0.0.0 Safari/537.36" version="27.0.6">
  <diagram name="Page-1" id="791Ud5bWNXhkL0ilvFGb">
    <mxGraphModel dx="6060" dy="4140" grid="1" gridSize="10" guides="1" tooltips="1" connect="1" arrows="1" fold="1" page="1" pageScale="1" pageWidth="850" pageHeight="1100" math="0" shadow="0">
      <root>
        <mxCell id="0" />
        <mxCell id="1" parent="0" />
        <mxCell id="A9HnPnSYlOHeTBeA_WHt-2" value="" style="rounded=0;whiteSpace=wrap;html=1;fillColor=none;movable=1;resizable=1;rotatable=1;deletable=1;editable=1;locked=0;connectable=1;strokeWidth=2;" vertex="1" parent="1">
          <mxGeometry x="-810" y="-350" width="4260" height="2150" as="geometry" />
        </mxCell>
        <mxCell id="xYK7c_auuM8LPZImZWRX-97" style="edgeStyle=orthogonalEdgeStyle;rounded=0;orthogonalLoop=1;jettySize=auto;html=1;exitX=1;exitY=0.5;exitDx=0;exitDy=0;entryX=0;entryY=0.5;entryDx=0;entryDy=0;strokeWidth=2;" parent="1" target="xYK7c_auuM8LPZImZWRX-45" edge="1">
          <mxGeometry relative="1" as="geometry">
            <mxPoint x="720" y="469.8199999999999" as="sourcePoint" />
          </mxGeometry>
        </mxCell>
        <mxCell id="xYK7c_auuM8LPZImZWRX-134" value="&lt;font style=&quot;font-size: 20px;&quot;&gt;Generate&lt;/font&gt;" style="edgeLabel;html=1;align=center;verticalAlign=middle;resizable=0;points=[];" parent="xYK7c_auuM8LPZImZWRX-97" vertex="1" connectable="0">
          <mxGeometry x="-0.052" y="3" relative="1" as="geometry">
            <mxPoint x="44" y="18" as="offset" />
          </mxGeometry>
        </mxCell>
        <mxCell id="xYK7c_auuM8LPZImZWRX-16" value="&lt;font style=&quot;font-size: 28px;&quot;&gt;PERSONAS&lt;/font&gt;" style="swimlane;whiteSpace=wrap;html=1;startSize=50;strokeWidth=2;" parent="1" vertex="1">
          <mxGeometry x="200" y="110" width="350" height="720" as="geometry" />
        </mxCell>
        <mxCell id="xYK7c_auuM8LPZImZWRX-8" value="&lt;font style=&quot;font-size: 22px;&quot;&gt;Group 1&lt;/font&gt;&lt;font style=&quot;font-size: 20px;&quot;&gt; &lt;span style=&quot;font-weight: normal;&quot;&gt;(e.g., Developers &amp;amp; App Creators&lt;/span&gt;&lt;/font&gt;" style="swimlane;horizontal=0;whiteSpace=wrap;html=1;startSize=90;" parent="xYK7c_auuM8LPZImZWRX-16" vertex="1">
          <mxGeometry x="20" y="70" width="310" height="140" as="geometry" />
        </mxCell>
        <mxCell id="xYK7c_auuM8LPZImZWRX-11" value="&lt;font style=&quot;font-size: 20px;&quot;&gt;P-001 (Daniel - Full-stack developer)&lt;/font&gt;" style="rounded=0;whiteSpace=wrap;html=1;" parent="xYK7c_auuM8LPZImZWRX-8" vertex="1">
          <mxGeometry x="100" y="30" width="200" height="80" as="geometry" />
        </mxCell>
        <mxCell id="xYK7c_auuM8LPZImZWRX-9" value="&lt;font style=&quot;font-size: 22px;&quot;&gt;Group 2&lt;/font&gt;&lt;font style=&quot;font-size: 20px;&quot;&gt;&amp;nbsp;&lt;/font&gt;&lt;div&gt;&lt;font style=&quot;font-size: 20px;&quot;&gt;&lt;span style=&quot;font-weight: normal;&quot;&gt;(e.g., Caregivers &amp;amp; Medical Staff)&lt;/span&gt;&lt;/font&gt;&lt;/div&gt;" style="swimlane;horizontal=0;whiteSpace=wrap;html=1;startSize=90;" parent="xYK7c_auuM8LPZImZWRX-16" vertex="1">
          <mxGeometry x="20" y="250" width="310" height="200" as="geometry" />
        </mxCell>
        <mxCell id="xYK7c_auuM8LPZImZWRX-12" value="&lt;font style=&quot;font-size: 20px;&quot;&gt;P-004 (Mike - Registered Nurse)&lt;/font&gt;" style="rounded=0;whiteSpace=wrap;html=1;" parent="xYK7c_auuM8LPZImZWRX-9" vertex="1">
          <mxGeometry x="100" y="20" width="200" height="70" as="geometry" />
        </mxCell>
        <mxCell id="xYK7c_auuM8LPZImZWRX-13" value="&lt;font style=&quot;font-size: 20px;&quot;&gt;P-006 (Sarah - Informal Caregiver)&lt;/font&gt;" style="rounded=0;whiteSpace=wrap;html=1;" parent="xYK7c_auuM8LPZImZWRX-9" vertex="1">
          <mxGeometry x="100" y="110" width="200" height="70" as="geometry" />
        </mxCell>
        <mxCell id="xYK7c_auuM8LPZImZWRX-10" value="&lt;font style=&quot;font-size: 22px;&quot;&gt;Group 3&lt;/font&gt;&lt;font style=&quot;font-size: 20px;&quot;&gt;&amp;nbsp;&lt;/font&gt;&lt;div&gt;&lt;font style=&quot;font-size: 20px;&quot;&gt;&lt;span style=&quot;font-weight: normal;&quot;&gt;(e.g., Older Adults)&lt;/span&gt;&lt;/font&gt;&lt;/div&gt;" style="swimlane;horizontal=0;whiteSpace=wrap;html=1;startSize=90;" parent="xYK7c_auuM8LPZImZWRX-16" vertex="1">
          <mxGeometry x="20" y="490" width="310" height="200" as="geometry" />
        </mxCell>
        <mxCell id="xYK7c_auuM8LPZImZWRX-14" value="&lt;font style=&quot;font-size: 20px;&quot;&gt;P-002 (Elena - Open-minded Older)&lt;/font&gt;" style="rounded=0;whiteSpace=wrap;html=1;" parent="xYK7c_auuM8LPZImZWRX-10" vertex="1">
          <mxGeometry x="100" y="20" width="200" height="70" as="geometry" />
        </mxCell>
        <mxCell id="xYK7c_auuM8LPZImZWRX-15" value="&lt;font style=&quot;font-size: 20px;&quot;&gt;P-005 (Olivia - Difficult Older)&lt;/font&gt;" style="rounded=0;whiteSpace=wrap;html=1;" parent="xYK7c_auuM8LPZImZWRX-10" vertex="1">
          <mxGeometry x="100" y="110" width="200" height="70" as="geometry" />
        </mxCell>
        <mxCell id="xYK7c_auuM8LPZImZWRX-19" style="edgeStyle=orthogonalEdgeStyle;rounded=0;orthogonalLoop=1;jettySize=auto;html=1;exitX=0;exitY=0.5;exitDx=0;exitDy=0;entryX=1;entryY=0.5;entryDx=0;entryDy=0;strokeWidth=2;startArrow=classic;startFill=1;" parent="1" source="xYK7c_auuM8LPZImZWRX-8" target="xYK7c_auuM8LPZImZWRX-23" edge="1">
          <mxGeometry relative="1" as="geometry">
            <mxPoint x="170" y="260" as="targetPoint" />
          </mxGeometry>
        </mxCell>
        <mxCell id="xYK7c_auuM8LPZImZWRX-21" style="edgeStyle=orthogonalEdgeStyle;rounded=0;orthogonalLoop=1;jettySize=auto;html=1;exitX=0;exitY=0.5;exitDx=0;exitDy=0;strokeWidth=2;startArrow=classic;startFill=1;" parent="1" source="xYK7c_auuM8LPZImZWRX-9" target="xYK7c_auuM8LPZImZWRX-22" edge="1">
          <mxGeometry relative="1" as="geometry">
            <mxPoint x="180" y="460.38461538461524" as="targetPoint" />
          </mxGeometry>
        </mxCell>
        <mxCell id="xYK7c_auuM8LPZImZWRX-25" style="edgeStyle=orthogonalEdgeStyle;rounded=0;orthogonalLoop=1;jettySize=auto;html=1;exitX=0;exitY=0.5;exitDx=0;exitDy=0;strokeWidth=2;startArrow=classic;startFill=1;" parent="1" source="xYK7c_auuM8LPZImZWRX-10" target="xYK7c_auuM8LPZImZWRX-24" edge="1">
          <mxGeometry relative="1" as="geometry" />
        </mxCell>
        <mxCell id="xYK7c_auuM8LPZImZWRX-72" style="edgeStyle=orthogonalEdgeStyle;rounded=0;orthogonalLoop=1;jettySize=auto;html=1;exitX=1;exitY=0.5;exitDx=0;exitDy=0;entryX=0;entryY=0.5;entryDx=0;entryDy=0;strokeWidth=2;" parent="1" source="xYK7c_auuM8LPZImZWRX-135" target="xYK7c_auuM8LPZImZWRX-58" edge="1">
          <mxGeometry relative="1" as="geometry" />
        </mxCell>
        <mxCell id="xYK7c_auuM8LPZImZWRX-77" value="&lt;font style=&quot;font-size: 20px;&quot;&gt;Extract&lt;/font&gt;" style="edgeLabel;html=1;align=center;verticalAlign=middle;resizable=0;points=[];" parent="xYK7c_auuM8LPZImZWRX-72" vertex="1" connectable="0">
          <mxGeometry y="1" relative="1" as="geometry">
            <mxPoint x="-5" y="16" as="offset" />
          </mxGeometry>
        </mxCell>
        <mxCell id="xYK7c_auuM8LPZImZWRX-136" style="edgeStyle=orthogonalEdgeStyle;rounded=0;orthogonalLoop=1;jettySize=auto;html=1;exitX=1;exitY=0.5;exitDx=0;exitDy=0;entryX=0;entryY=0.5;entryDx=0;entryDy=0;strokeWidth=2;" parent="1" source="xYK7c_auuM8LPZImZWRX-45" target="xYK7c_auuM8LPZImZWRX-135" edge="1">
          <mxGeometry relative="1" as="geometry" />
        </mxCell>
        <mxCell id="xYK7c_auuM8LPZImZWRX-137" value="&lt;font style=&quot;font-size: 20px;&quot;&gt;Input&lt;/font&gt;" style="edgeLabel;html=1;align=center;verticalAlign=middle;resizable=0;points=[];" parent="xYK7c_auuM8LPZImZWRX-136" vertex="1" connectable="0">
          <mxGeometry x="0.0183" y="-1" relative="1" as="geometry">
            <mxPoint x="27" y="14" as="offset" />
          </mxGeometry>
        </mxCell>
        <mxCell id="xYK7c_auuM8LPZImZWRX-45" value="&lt;font style=&quot;font-size: 28px;&quot;&gt;USE CASES&lt;/font&gt;" style="swimlane;whiteSpace=wrap;html=1;startSize=50;strokeWidth=2;" parent="1" vertex="1">
          <mxGeometry x="943.5" y="109.91" width="220" height="720" as="geometry" />
        </mxCell>
        <mxCell id="xYK7c_auuM8LPZImZWRX-46" value="&lt;font style=&quot;font-size: 20px;&quot;&gt;UC-001&lt;/font&gt;" style="rounded=0;whiteSpace=wrap;html=1;" parent="xYK7c_auuM8LPZImZWRX-45" vertex="1">
          <mxGeometry x="30" y="90" width="160" height="60" as="geometry" />
        </mxCell>
        <mxCell id="xYK7c_auuM8LPZImZWRX-49" value="&lt;font style=&quot;font-size: 16px;&quot;&gt;&lt;b&gt;...&lt;/b&gt;&lt;/font&gt;" style="text;html=1;align=center;verticalAlign=middle;resizable=0;points=[];autosize=1;strokeColor=none;fillColor=none;" parent="xYK7c_auuM8LPZImZWRX-45" vertex="1">
          <mxGeometry x="90" y="500" width="40" height="30" as="geometry" />
        </mxCell>
        <mxCell id="xYK7c_auuM8LPZImZWRX-61" value="&lt;font style=&quot;font-size: 20px;&quot;&gt;UC-002&lt;/font&gt;" style="rounded=0;whiteSpace=wrap;html=1;" parent="xYK7c_auuM8LPZImZWRX-45" vertex="1">
          <mxGeometry x="30" y="230" width="160" height="60" as="geometry" />
        </mxCell>
        <mxCell id="xYK7c_auuM8LPZImZWRX-62" value="&lt;font style=&quot;font-size: 20px;&quot;&gt;UC-002&lt;/font&gt;" style="rounded=0;whiteSpace=wrap;html=1;" parent="xYK7c_auuM8LPZImZWRX-45" vertex="1">
          <mxGeometry x="30" y="370" width="160" height="60" as="geometry" />
        </mxCell>
        <mxCell id="xYK7c_auuM8LPZImZWRX-68" value="&lt;font style=&quot;font-size: 20px;&quot;&gt;UC-XXX&lt;/font&gt;" style="rounded=0;whiteSpace=wrap;html=1;" parent="xYK7c_auuM8LPZImZWRX-45" vertex="1">
          <mxGeometry x="30" y="610" width="160" height="60" as="geometry" />
        </mxCell>
        <mxCell id="xYK7c_auuM8LPZImZWRX-83" style="edgeStyle=orthogonalEdgeStyle;rounded=0;orthogonalLoop=1;jettySize=auto;html=1;exitX=1;exitY=0.5;exitDx=0;exitDy=0;entryX=0;entryY=0.5;entryDx=0;entryDy=0;strokeWidth=2;" parent="1" source="xYK7c_auuM8LPZImZWRX-139" target="xYK7c_auuM8LPZImZWRX-85" edge="1">
          <mxGeometry relative="1" as="geometry">
            <mxPoint x="1930" y="469.5714285714289" as="targetPoint" />
          </mxGeometry>
        </mxCell>
        <mxCell id="xYK7c_auuM8LPZImZWRX-58" value="&lt;font style=&quot;font-size: 28px;&quot;&gt;TASKS&lt;/font&gt;" style="swimlane;whiteSpace=wrap;html=1;startSize=50;strokeWidth=2;" parent="1" vertex="1">
          <mxGeometry x="1530" y="110" width="200" height="720" as="geometry" />
        </mxCell>
        <mxCell id="xYK7c_auuM8LPZImZWRX-59" value="&lt;font style=&quot;font-size: 20px;&quot;&gt;P-001&#39;s Tasks&lt;/font&gt;" style="rounded=0;whiteSpace=wrap;html=1;" parent="xYK7c_auuM8LPZImZWRX-58" vertex="1">
          <mxGeometry x="30" y="100" width="140" height="60" as="geometry" />
        </mxCell>
        <mxCell id="xYK7c_auuM8LPZImZWRX-79" value="&lt;font style=&quot;font-size: 20px;&quot;&gt;P-004&#39;s Tasks&lt;/font&gt;" style="rounded=0;whiteSpace=wrap;html=1;" parent="xYK7c_auuM8LPZImZWRX-58" vertex="1">
          <mxGeometry x="30" y="250" width="140" height="60" as="geometry" />
        </mxCell>
        <mxCell id="xYK7c_auuM8LPZImZWRX-80" value="&lt;font style=&quot;font-size: 20px;&quot;&gt;P-006&#39;s Tasks&lt;/font&gt;" style="rounded=0;whiteSpace=wrap;html=1;" parent="xYK7c_auuM8LPZImZWRX-58" vertex="1">
          <mxGeometry x="30" y="345" width="140" height="60" as="geometry" />
        </mxCell>
        <mxCell id="xYK7c_auuM8LPZImZWRX-81" value="&lt;font style=&quot;font-size: 18px;&quot;&gt;P-002&#39;s Tasks&lt;/font&gt;" style="rounded=0;whiteSpace=wrap;html=1;" parent="xYK7c_auuM8LPZImZWRX-58" vertex="1">
          <mxGeometry x="30" y="490" width="140" height="60" as="geometry" />
        </mxCell>
        <mxCell id="xYK7c_auuM8LPZImZWRX-82" value="&lt;font style=&quot;font-size: 20px;&quot;&gt;P-005&#39;s Tasks&lt;/font&gt;" style="rounded=0;whiteSpace=wrap;html=1;" parent="xYK7c_auuM8LPZImZWRX-58" vertex="1">
          <mxGeometry x="30" y="585" width="140" height="60" as="geometry" />
        </mxCell>
        <mxCell id="xYK7c_auuM8LPZImZWRX-74" value="&lt;font style=&quot;font-size: 36px;&quot;&gt;SYSTEM (e.g., ALFRED)&lt;/font&gt;" style="swimlane;whiteSpace=wrap;html=1;startSize=70;strokeWidth=3;" parent="1" vertex="1">
          <mxGeometry x="-710" y="-160" width="770" height="1880" as="geometry" />
        </mxCell>
        <mxCell id="A9HnPnSYlOHeTBeA_WHt-23" style="edgeStyle=orthogonalEdgeStyle;rounded=0;orthogonalLoop=1;jettySize=auto;html=1;strokeWidth=2;dashed=1;" edge="1" parent="xYK7c_auuM8LPZImZWRX-74">
          <mxGeometry relative="1" as="geometry">
            <mxPoint x="1930" y="630" as="targetPoint" />
            <mxPoint x="1310" y="1160" as="sourcePoint" />
          </mxGeometry>
        </mxCell>
        <mxCell id="xYK7c_auuM8LPZImZWRX-17" value="&lt;b style=&quot;font-size: 28px;&quot;&gt;USE CASE RELATED RULES&lt;/b&gt;&lt;span style=&quot;font-size: 28px;&quot;&gt;&amp;nbsp;(e.g., definition, structure, types, scenario examples, task extraction examples&lt;/span&gt;" style="rounded=0;whiteSpace=wrap;html=1;strokeWidth=2;" parent="xYK7c_auuM8LPZImZWRX-74" vertex="1">
          <mxGeometry x="40" y="1100" width="690" height="120" as="geometry" />
        </mxCell>
        <mxCell id="xYK7c_auuM8LPZImZWRX-143" style="edgeStyle=orthogonalEdgeStyle;rounded=0;orthogonalLoop=1;jettySize=auto;html=1;dashed=1;strokeWidth=2;" parent="xYK7c_auuM8LPZImZWRX-74" edge="1">
          <mxGeometry relative="1" as="geometry">
            <mxPoint x="1930" y="630" as="targetPoint" />
            <mxPoint x="1000" y="160" as="sourcePoint" />
            <Array as="points">
              <mxPoint x="1930" y="161" />
              <mxPoint x="1930" y="630" />
            </Array>
          </mxGeometry>
        </mxCell>
        <mxCell id="xYK7c_auuM8LPZImZWRX-146" style="edgeStyle=orthogonalEdgeStyle;rounded=0;orthogonalLoop=1;jettySize=auto;html=1;dashed=1;strokeWidth=2;" parent="xYK7c_auuM8LPZImZWRX-74" edge="1">
          <mxGeometry relative="1" as="geometry">
            <mxPoint x="2510" y="630" as="targetPoint" />
            <mxPoint x="1930" y="161" as="sourcePoint" />
            <Array as="points">
              <mxPoint x="2510" y="161" />
            </Array>
          </mxGeometry>
        </mxCell>
        <mxCell id="xYK7c_auuM8LPZImZWRX-18" value="&lt;font style=&quot;font-size: 28px;&quot;&gt;&lt;b&gt;SYSTEM CONTEXT&amp;nbsp;&lt;/b&gt;&lt;/font&gt;&lt;div&gt;&lt;font style=&quot;font-size: 28px;&quot;&gt;(SUMMARY&amp;nbsp;&lt;/font&gt;&lt;span style=&quot;font-size: 28px; background-color: transparent; color: light-dark(rgb(0, 0, 0), rgb(255, 255, 255));&quot;&gt;&amp;amp; PILLARS)&lt;/span&gt;&lt;/div&gt;" style="rounded=0;whiteSpace=wrap;html=1;strokeWidth=2;" parent="xYK7c_auuM8LPZImZWRX-74" vertex="1">
          <mxGeometry x="95" y="100" width="585" height="130" as="geometry" />
        </mxCell>
        <mxCell id="xYK7c_auuM8LPZImZWRX-76" value="&lt;font style=&quot;font-size: 28px;&quot;&gt;USER GROUPS&lt;/font&gt;" style="swimlane;whiteSpace=wrap;html=1;startSize=60;strokeWidth=2;" parent="xYK7c_auuM8LPZImZWRX-74" vertex="1">
          <mxGeometry x="90" y="280" width="590" height="780" as="geometry" />
        </mxCell>
        <mxCell id="xYK7c_auuM8LPZImZWRX-23" value="&lt;font style=&quot;font-size: 23px;&quot;&gt;User group 1&#39;s guidelines&lt;/font&gt;" style="rounded=0;whiteSpace=wrap;html=1;" parent="xYK7c_auuM8LPZImZWRX-76" vertex="1">
          <mxGeometry x="60" y="90.09" width="200" height="79.81" as="geometry" />
        </mxCell>
        <mxCell id="xYK7c_auuM8LPZImZWRX-22" value="&lt;font style=&quot;font-size: 23px;&quot;&gt;User group 2&#39;s guidelines&lt;/font&gt;" style="rounded=0;whiteSpace=wrap;html=1;" parent="xYK7c_auuM8LPZImZWRX-76" vertex="1">
          <mxGeometry x="60" y="300.1" width="200" height="79.81" as="geometry" />
        </mxCell>
        <mxCell id="xYK7c_auuM8LPZImZWRX-24" value="&lt;font style=&quot;font-size: 23px;&quot;&gt;&lt;font style=&quot;&quot;&gt;User group 3&lt;/font&gt;&lt;span style=&quot;background-color: transparent; color: light-dark(rgb(0, 0, 0), rgb(255, 255, 255));&quot;&gt;&#39;s guidelines&lt;/span&gt;&lt;/font&gt;" style="rounded=0;whiteSpace=wrap;html=1;" parent="xYK7c_auuM8LPZImZWRX-76" vertex="1">
          <mxGeometry x="60" y="540.1" width="200" height="79.81" as="geometry" />
        </mxCell>
        <mxCell id="xYK7c_auuM8LPZImZWRX-145" style="edgeStyle=orthogonalEdgeStyle;rounded=0;orthogonalLoop=1;jettySize=auto;html=1;exitX=1;exitY=0.5;exitDx=0;exitDy=0;dashed=1;strokeWidth=2;" parent="xYK7c_auuM8LPZImZWRX-74" source="xYK7c_auuM8LPZImZWRX-144" edge="1">
          <mxGeometry relative="1" as="geometry">
            <mxPoint x="2510" y="630" as="targetPoint" />
            <Array as="points">
              <mxPoint x="2510" y="1330" />
              <mxPoint x="2510" y="630" />
            </Array>
          </mxGeometry>
        </mxCell>
        <mxCell id="xYK7c_auuM8LPZImZWRX-144" value="&lt;b style=&quot;font-size: 28px;&quot;&gt;USER STORY RELATED RULES&lt;/b&gt;&lt;span style=&quot;font-size: 28px;&quot;&gt;&amp;nbsp;(e.g., definition, structure, examples,&amp;nbsp;&lt;/span&gt;&lt;b style=&quot;font-size: 28px;&quot;&gt;clustering techniques&lt;/b&gt;&lt;span style=&quot;font-size: 28px;&quot;&gt;)&lt;/span&gt;" style="rounded=0;whiteSpace=wrap;html=1;strokeWidth=2;" parent="xYK7c_auuM8LPZImZWRX-74" vertex="1">
          <mxGeometry x="40" y="1270" width="690" height="120" as="geometry" />
        </mxCell>
        <mxCell id="xYK7c_auuM8LPZImZWRX-150" style="edgeStyle=orthogonalEdgeStyle;rounded=0;orthogonalLoop=1;jettySize=auto;html=1;exitX=1;exitY=0.5;exitDx=0;exitDy=0;dashed=1;strokeWidth=2;" parent="xYK7c_auuM8LPZImZWRX-74" source="A9HnPnSYlOHeTBeA_WHt-19" edge="1">
          <mxGeometry relative="1" as="geometry">
            <mxPoint x="3280" y="480" as="targetPoint" />
            <Array as="points">
              <mxPoint x="3280" y="1600" />
              <mxPoint x="3280" y="480" />
            </Array>
            <mxPoint x="460" y="1470" as="sourcePoint" />
          </mxGeometry>
        </mxCell>
        <mxCell id="xYK7c_auuM8LPZImZWRX-157" style="edgeStyle=orthogonalEdgeStyle;rounded=0;orthogonalLoop=1;jettySize=auto;html=1;exitX=1;exitY=0.5;exitDx=0;exitDy=0;dashed=1;strokeWidth=2;" parent="xYK7c_auuM8LPZImZWRX-74" source="A9HnPnSYlOHeTBeA_WHt-20" edge="1">
          <mxGeometry relative="1" as="geometry">
            <mxPoint x="3330" y="820" as="targetPoint" />
            <Array as="points">
              <mxPoint x="3330" y="1720" />
              <mxPoint x="3330" y="820" />
            </Array>
            <mxPoint x="460" y="1620" as="sourcePoint" />
          </mxGeometry>
        </mxCell>
        <mxCell id="A9HnPnSYlOHeTBeA_WHt-18" value="&lt;span style=&quot;font-size: 26px;&quot;&gt;USER STORIES CLUSTERING&lt;/span&gt;" style="swimlane;whiteSpace=wrap;html=1;startSize=70;strokeWidth=2;" vertex="1" parent="xYK7c_auuM8LPZImZWRX-74">
          <mxGeometry x="97.5" y="1450" width="580" height="370" as="geometry" />
        </mxCell>
        <mxCell id="A9HnPnSYlOHeTBeA_WHt-19" value="&lt;b style=&quot;&quot;&gt;&lt;font style=&quot;font-size: 24px;&quot;&gt;NON-FUNCTIONAL USER STORIES CLUSTERS (Hard-coded by Pillars)&lt;/font&gt;&lt;/b&gt;" style="rounded=0;whiteSpace=wrap;html=1;strokeWidth=1;" vertex="1" parent="A9HnPnSYlOHeTBeA_WHt-18">
          <mxGeometry x="57.5" y="110" width="465" height="80" as="geometry" />
        </mxCell>
        <mxCell id="A9HnPnSYlOHeTBeA_WHt-20" value="&lt;b style=&quot;&quot;&gt;&lt;font style=&quot;font-size: 24px;&quot;&gt;FUNCTIONAL USER STORIES CLUSTERING GUIDELINES&amp;nbsp;&lt;/font&gt;&lt;/b&gt;&lt;div&gt;&lt;b style=&quot;&quot;&gt;&lt;font style=&quot;font-size: 24px;&quot;&gt;(Poort and de With technique)&lt;/font&gt;&lt;/b&gt;&lt;/div&gt;" style="rounded=0;whiteSpace=wrap;html=1;strokeWidth=1;" vertex="1" parent="A9HnPnSYlOHeTBeA_WHt-18">
          <mxGeometry x="57.5" y="220" width="465" height="100" as="geometry" />
        </mxCell>
        <mxCell id="xYK7c_auuM8LPZImZWRX-78" style="edgeStyle=orthogonalEdgeStyle;rounded=0;orthogonalLoop=1;jettySize=auto;html=1;exitX=1;exitY=0.5;exitDx=0;exitDy=0;dashed=1;strokeWidth=2;" parent="1" source="xYK7c_auuM8LPZImZWRX-18" edge="1">
          <mxGeometry relative="1" as="geometry">
            <mxPoint x="600" y="470" as="targetPoint" />
            <Array as="points">
              <mxPoint x="600" />
              <mxPoint x="600" y="470" />
            </Array>
          </mxGeometry>
        </mxCell>
        <mxCell id="xYK7c_auuM8LPZImZWRX-85" value="&lt;font style=&quot;font-size: 28px;&quot;&gt;USER STORIES&lt;/font&gt;" style="swimlane;whiteSpace=wrap;html=1;startSize=50;strokeWidth=2;" parent="1" vertex="1">
          <mxGeometry x="2169" y="110" width="1191" height="720" as="geometry" />
        </mxCell>
        <mxCell id="xYK7c_auuM8LPZImZWRX-166" style="edgeStyle=orthogonalEdgeStyle;rounded=0;orthogonalLoop=1;jettySize=auto;html=1;exitX=1;exitY=0.5;exitDx=0;exitDy=0;entryX=0;entryY=0.5;entryDx=0;entryDy=0;strokeWidth=2;" parent="xYK7c_auuM8LPZImZWRX-85" source="xYK7c_auuM8LPZImZWRX-104" target="xYK7c_auuM8LPZImZWRX-164" edge="1">
          <mxGeometry relative="1" as="geometry">
            <Array as="points">
              <mxPoint x="391" y="550" />
              <mxPoint x="391" y="550" />
            </Array>
          </mxGeometry>
        </mxCell>
        <mxCell id="xYK7c_auuM8LPZImZWRX-167" value="&lt;font style=&quot;font-size: 18px;&quot;&gt;In&lt;/font&gt;&lt;div&gt;&lt;font style=&quot;font-size: 18px;&quot;&gt;-put&lt;/font&gt;&lt;/div&gt;" style="edgeLabel;html=1;align=center;verticalAlign=middle;resizable=0;points=[];" parent="xYK7c_auuM8LPZImZWRX-166" vertex="1" connectable="0">
          <mxGeometry x="0.3679" relative="1" as="geometry">
            <mxPoint x="9" y="35" as="offset" />
          </mxGeometry>
        </mxCell>
        <mxCell id="xYK7c_auuM8LPZImZWRX-104" value="&lt;font style=&quot;font-size: 20px;&quot;&gt;FUNCTIONAL USER STORIES&lt;/font&gt;" style="swimlane;whiteSpace=wrap;html=1;startSize=50;" parent="xYK7c_auuM8LPZImZWRX-85" vertex="1">
          <mxGeometry x="20" y="390" width="346" height="320" as="geometry" />
        </mxCell>
        <mxCell id="xYK7c_auuM8LPZImZWRX-105" value="&lt;font style=&quot;font-size: 20px;&quot;&gt;P-001&#39;s FUSs&lt;/font&gt;" style="rounded=0;whiteSpace=wrap;html=1;" parent="xYK7c_auuM8LPZImZWRX-104" vertex="1">
          <mxGeometry x="11" y="60" width="139" height="40" as="geometry" />
        </mxCell>
        <mxCell id="xYK7c_auuM8LPZImZWRX-106" value="&lt;font style=&quot;font-size: 20px;&quot;&gt;P-004s FUSs&lt;/font&gt;" style="rounded=0;whiteSpace=wrap;html=1;" parent="xYK7c_auuM8LPZImZWRX-104" vertex="1">
          <mxGeometry x="181" y="110.09" width="139" height="39.91" as="geometry" />
        </mxCell>
        <mxCell id="xYK7c_auuM8LPZImZWRX-107" value="&lt;font style=&quot;font-size: 20px;&quot;&gt;P-006s FUSs&lt;/font&gt;" style="rounded=0;whiteSpace=wrap;html=1;" parent="xYK7c_auuM8LPZImZWRX-104" vertex="1">
          <mxGeometry x="181" y="160.09" width="139" height="39.91" as="geometry" />
        </mxCell>
        <mxCell id="xYK7c_auuM8LPZImZWRX-108" value="&lt;font style=&quot;font-size: 20px;&quot;&gt;P-002s FUSs&lt;/font&gt;" style="rounded=0;whiteSpace=wrap;html=1;" parent="xYK7c_auuM8LPZImZWRX-104" vertex="1">
          <mxGeometry x="11" y="220" width="139" height="40.09" as="geometry" />
        </mxCell>
        <mxCell id="xYK7c_auuM8LPZImZWRX-109" value="&lt;font style=&quot;font-size: 20px;&quot;&gt;P-005s FUSs&lt;/font&gt;" style="rounded=0;whiteSpace=wrap;html=1;" parent="xYK7c_auuM8LPZImZWRX-104" vertex="1">
          <mxGeometry x="11" y="270" width="139" height="40.09" as="geometry" />
        </mxCell>
        <mxCell id="xYK7c_auuM8LPZImZWRX-155" style="edgeStyle=orthogonalEdgeStyle;rounded=0;orthogonalLoop=1;jettySize=auto;html=1;exitX=1;exitY=0.5;exitDx=0;exitDy=0;entryX=0;entryY=0.5;entryDx=0;entryDy=0;strokeWidth=2;" parent="xYK7c_auuM8LPZImZWRX-85" source="xYK7c_auuM8LPZImZWRX-89" target="xYK7c_auuM8LPZImZWRX-152" edge="1">
          <mxGeometry relative="1" as="geometry" />
        </mxCell>
        <mxCell id="xYK7c_auuM8LPZImZWRX-156" value="&lt;font style=&quot;font-size: 18px;&quot;&gt;In-&lt;/font&gt;&lt;div&gt;&lt;font style=&quot;font-size: 18px;&quot;&gt;put&lt;/font&gt;&lt;/div&gt;" style="edgeLabel;html=1;align=center;verticalAlign=middle;resizable=0;points=[];" parent="xYK7c_auuM8LPZImZWRX-155" vertex="1" connectable="0">
          <mxGeometry x="0.2685" y="1" relative="1" as="geometry">
            <mxPoint x="2" y="31" as="offset" />
          </mxGeometry>
        </mxCell>
        <mxCell id="xYK7c_auuM8LPZImZWRX-89" value="&lt;font style=&quot;font-size: 20px;&quot;&gt;NON-FUNCTIONAL USER STORIES&lt;/font&gt;" style="swimlane;whiteSpace=wrap;html=1;startSize=40;" parent="xYK7c_auuM8LPZImZWRX-85" vertex="1">
          <mxGeometry x="20" y="60" width="346" height="300" as="geometry" />
        </mxCell>
        <mxCell id="xYK7c_auuM8LPZImZWRX-96" value="&lt;font style=&quot;font-size: 20px;&quot;&gt;P-001&#39;s NFUSs&lt;/font&gt;" style="rounded=0;whiteSpace=wrap;html=1;" parent="xYK7c_auuM8LPZImZWRX-89" vertex="1">
          <mxGeometry x="10" y="50" width="150" height="40" as="geometry" />
        </mxCell>
        <mxCell id="xYK7c_auuM8LPZImZWRX-100" value="&lt;font style=&quot;font-size: 20px;&quot;&gt;P-004s NFUSs&lt;/font&gt;" style="rounded=0;whiteSpace=wrap;html=1;" parent="xYK7c_auuM8LPZImZWRX-89" vertex="1">
          <mxGeometry x="170" y="100" width="150" height="40.18" as="geometry" />
        </mxCell>
        <mxCell id="xYK7c_auuM8LPZImZWRX-101" value="&lt;font style=&quot;font-size: 20px;&quot;&gt;P-006s NFUSs&lt;/font&gt;" style="rounded=0;whiteSpace=wrap;html=1;" parent="xYK7c_auuM8LPZImZWRX-89" vertex="1">
          <mxGeometry x="170" y="150.09" width="151" height="39.91" as="geometry" />
        </mxCell>
        <mxCell id="xYK7c_auuM8LPZImZWRX-102" value="&lt;font style=&quot;font-size: 20px;&quot;&gt;P-002s NFUSs&lt;/font&gt;" style="rounded=0;whiteSpace=wrap;html=1;" parent="xYK7c_auuM8LPZImZWRX-89" vertex="1">
          <mxGeometry x="10" y="200" width="150" height="40" as="geometry" />
        </mxCell>
        <mxCell id="xYK7c_auuM8LPZImZWRX-103" value="&lt;font style=&quot;font-size: 20px;&quot;&gt;P-005s NFUSs&lt;/font&gt;" style="rounded=0;whiteSpace=wrap;html=1;" parent="xYK7c_auuM8LPZImZWRX-89" vertex="1">
          <mxGeometry x="10" y="250" width="150" height="39.91" as="geometry" />
        </mxCell>
        <mxCell id="xYK7c_auuM8LPZImZWRX-152" value="&lt;b&gt;&lt;font style=&quot;font-size: 20px;&quot;&gt;LLM&lt;/font&gt;&lt;/b&gt;" style="rounded=0;whiteSpace=wrap;html=1;" parent="xYK7c_auuM8LPZImZWRX-85" vertex="1">
          <mxGeometry x="481" y="180" width="69" height="60" as="geometry" />
        </mxCell>
        <mxCell id="xYK7c_auuM8LPZImZWRX-110" style="edgeStyle=orthogonalEdgeStyle;rounded=0;orthogonalLoop=1;jettySize=auto;html=1;exitX=1;exitY=0.5;exitDx=0;exitDy=0;strokeWidth=2;" parent="xYK7c_auuM8LPZImZWRX-85" source="xYK7c_auuM8LPZImZWRX-152" target="xYK7c_auuM8LPZImZWRX-113" edge="1">
          <mxGeometry relative="1" as="geometry">
            <mxPoint x="690" y="215.90909090909054" as="targetPoint" />
            <mxPoint x="571" y="190" as="sourcePoint" />
          </mxGeometry>
        </mxCell>
        <mxCell id="xYK7c_auuM8LPZImZWRX-153" value="&lt;font style=&quot;font-size: 18px;&quot;&gt;Cluster&lt;/font&gt;" style="edgeLabel;html=1;align=center;verticalAlign=middle;resizable=0;points=[];" parent="xYK7c_auuM8LPZImZWRX-110" vertex="1" connectable="0">
          <mxGeometry x="-0.0269" y="-1" relative="1" as="geometry">
            <mxPoint x="-2" y="14" as="offset" />
          </mxGeometry>
        </mxCell>
        <mxCell id="xYK7c_auuM8LPZImZWRX-113" value="&lt;font style=&quot;font-size: 20px;&quot;&gt;CLUSTERED NON-FUNCTIONAL USER STORIES&lt;/font&gt;" style="swimlane;whiteSpace=wrap;html=1;startSize=40;" parent="xYK7c_auuM8LPZImZWRX-85" vertex="1">
          <mxGeometry x="693" y="60" width="480" height="300" as="geometry" />
        </mxCell>
        <mxCell id="xYK7c_auuM8LPZImZWRX-158" value="&lt;font style=&quot;font-size: 20px;&quot;&gt;CLUSTERED FUNCTIONAL USER STORIES&lt;/font&gt;" style="swimlane;whiteSpace=wrap;html=1;startSize=50;" parent="xYK7c_auuM8LPZImZWRX-85" vertex="1">
          <mxGeometry x="693" y="390" width="480" height="320" as="geometry" />
        </mxCell>
        <mxCell id="xYK7c_auuM8LPZImZWRX-165" style="edgeStyle=orthogonalEdgeStyle;rounded=0;orthogonalLoop=1;jettySize=auto;html=1;exitX=1;exitY=0.5;exitDx=0;exitDy=0;entryX=0;entryY=0.5;entryDx=0;entryDy=0;strokeWidth=2;" parent="xYK7c_auuM8LPZImZWRX-85" source="xYK7c_auuM8LPZImZWRX-164" target="xYK7c_auuM8LPZImZWRX-158" edge="1">
          <mxGeometry relative="1" as="geometry" />
        </mxCell>
        <mxCell id="xYK7c_auuM8LPZImZWRX-168" value="&lt;font style=&quot;font-size: 18px;&quot;&gt;Cluster&lt;/font&gt;" style="edgeLabel;html=1;align=center;verticalAlign=middle;resizable=0;points=[];" parent="xYK7c_auuM8LPZImZWRX-165" vertex="1" connectable="0">
          <mxGeometry y="-1" relative="1" as="geometry">
            <mxPoint y="19" as="offset" />
          </mxGeometry>
        </mxCell>
        <mxCell id="xYK7c_auuM8LPZImZWRX-164" value="&lt;b&gt;&lt;font style=&quot;font-size: 20px;&quot;&gt;LLM&lt;/font&gt;&lt;/b&gt;" style="rounded=0;whiteSpace=wrap;html=1;" parent="xYK7c_auuM8LPZImZWRX-85" vertex="1">
          <mxGeometry x="521" y="520" width="69" height="60" as="geometry" />
        </mxCell>
        <mxCell id="xYK7c_auuM8LPZImZWRX-127" value="" style="edgeStyle=orthogonalEdgeStyle;rounded=0;orthogonalLoop=1;jettySize=auto;html=1;exitX=1;exitY=0.5;exitDx=0;exitDy=0;dashed=1;strokeWidth=2;" parent="1" source="xYK7c_auuM8LPZImZWRX-17" edge="1">
          <mxGeometry relative="1" as="geometry">
            <mxPoint x="-260" y="980" as="sourcePoint" />
            <mxPoint x="600" y="470" as="targetPoint" />
            <Array as="points">
              <mxPoint x="600" y="1000" />
              <mxPoint x="600" y="470" />
            </Array>
          </mxGeometry>
        </mxCell>
        <mxCell id="xYK7c_auuM8LPZImZWRX-132" value="&lt;font style=&quot;font-size: 20px;&quot;&gt;Input&lt;/font&gt;" style="edgeLabel;html=1;align=center;verticalAlign=middle;resizable=0;points=[];" parent="xYK7c_auuM8LPZImZWRX-127" vertex="1" connectable="0">
          <mxGeometry x="0.9126" relative="1" as="geometry">
            <mxPoint x="40" y="-31" as="offset" />
          </mxGeometry>
        </mxCell>
        <mxCell id="xYK7c_auuM8LPZImZWRX-133" value="" style="edgeStyle=orthogonalEdgeStyle;rounded=0;orthogonalLoop=1;jettySize=auto;html=1;exitX=1;exitY=0.5;exitDx=0;exitDy=0;entryX=0;entryY=0.5;entryDx=0;entryDy=0;strokeWidth=2;" parent="1" source="xYK7c_auuM8LPZImZWRX-16" target="xYK7c_auuM8LPZImZWRX-126" edge="1">
          <mxGeometry relative="1" as="geometry">
            <mxPoint x="400" y="470" as="sourcePoint" />
            <mxPoint x="1034" y="470" as="targetPoint" />
            <Array as="points">
              <mxPoint x="620" y="470" />
            </Array>
          </mxGeometry>
        </mxCell>
        <mxCell id="xYK7c_auuM8LPZImZWRX-126" value="&lt;b&gt;&lt;font style=&quot;font-size: 24px;&quot;&gt;LLM&lt;/font&gt;&lt;/b&gt;" style="rounded=0;whiteSpace=wrap;html=1;" parent="1" vertex="1">
          <mxGeometry x="690" y="439.90999999999997" width="120" height="60" as="geometry" />
        </mxCell>
        <mxCell id="xYK7c_auuM8LPZImZWRX-135" value="&lt;b&gt;&lt;font style=&quot;font-size: 24px;&quot;&gt;LLM&lt;/font&gt;&lt;/b&gt;" style="rounded=0;whiteSpace=wrap;html=1;" parent="1" vertex="1">
          <mxGeometry x="1300" y="439.90999999999997" width="120" height="60" as="geometry" />
        </mxCell>
        <mxCell id="xYK7c_auuM8LPZImZWRX-140" value="" style="edgeStyle=orthogonalEdgeStyle;rounded=0;orthogonalLoop=1;jettySize=auto;html=1;exitX=1;exitY=0.5;exitDx=0;exitDy=0;entryX=0;entryY=0.5;entryDx=0;entryDy=0;strokeWidth=2;" parent="1" source="xYK7c_auuM8LPZImZWRX-58" target="xYK7c_auuM8LPZImZWRX-139" edge="1">
          <mxGeometry relative="1" as="geometry">
            <mxPoint x="2099" y="470" as="targetPoint" />
            <mxPoint x="1730" y="470" as="sourcePoint" />
          </mxGeometry>
        </mxCell>
        <mxCell id="xYK7c_auuM8LPZImZWRX-141" value="&lt;font style=&quot;font-size: 20px;&quot;&gt;(1-by-1)&amp;nbsp;&lt;/font&gt;&lt;div&gt;&lt;font style=&quot;font-size: 20px;&quot;&gt;generate&lt;/font&gt;&lt;/div&gt;" style="edgeLabel;html=1;align=center;verticalAlign=middle;resizable=0;points=[];" parent="xYK7c_auuM8LPZImZWRX-140" vertex="1" connectable="0">
          <mxGeometry x="-0.0509" y="-1" relative="1" as="geometry">
            <mxPoint x="280" y="29" as="offset" />
          </mxGeometry>
        </mxCell>
        <mxCell id="xYK7c_auuM8LPZImZWRX-142" value="&lt;font style=&quot;font-size: 18px;&quot;&gt;In&lt;/font&gt;&lt;span style=&quot;font-size: 18px; background-color: light-dark(#ffffff, var(--ge-dark-color, #121212)); color: light-dark(rgb(0, 0, 0), rgb(255, 255, 255));&quot;&gt;put&lt;/span&gt;" style="edgeLabel;html=1;align=center;verticalAlign=middle;resizable=0;points=[];" parent="xYK7c_auuM8LPZImZWRX-140" vertex="1" connectable="0">
          <mxGeometry x="0.5657" y="-4" relative="1" as="geometry">
            <mxPoint x="-17" y="26" as="offset" />
          </mxGeometry>
        </mxCell>
        <mxCell id="xYK7c_auuM8LPZImZWRX-139" value="&lt;b&gt;&lt;font style=&quot;font-size: 24px;&quot;&gt;LLM&lt;/font&gt;&lt;/b&gt;" style="rounded=0;whiteSpace=wrap;html=1;" parent="1" vertex="1">
          <mxGeometry x="1920" y="439.99999999999994" width="120" height="60" as="geometry" />
        </mxCell>
        <mxCell id="xYK7c_auuM8LPZImZWRX-169" value="&lt;font style=&quot;font-size: 40px;&quot;&gt;&lt;b style=&quot;&quot;&gt;INPUT&lt;/b&gt;&lt;/font&gt;" style="rounded=0;whiteSpace=wrap;html=1;strokeWidth=2;" parent="1" vertex="1">
          <mxGeometry x="-810" y="-350" width="1440" height="130" as="geometry" />
        </mxCell>
        <mxCell id="A9HnPnSYlOHeTBeA_WHt-1" value="&lt;font style=&quot;font-size: 40px;&quot;&gt;&lt;b style=&quot;&quot;&gt;OUTPUT&lt;/b&gt;&lt;/font&gt;" style="rounded=0;whiteSpace=wrap;html=1;strokeWidth=2;" vertex="1" parent="1">
          <mxGeometry x="630" y="-350" width="2810" height="130" as="geometry" />
        </mxCell>
        <mxCell id="A9HnPnSYlOHeTBeA_WHt-7" value="&lt;font style=&quot;font-size: 20px;&quot;&gt;P-001&#39;s NFUSs&lt;/font&gt;" style="rounded=0;whiteSpace=wrap;html=1;" vertex="1" parent="1">
          <mxGeometry x="2873" y="220" width="150" height="40" as="geometry" />
        </mxCell>
        <mxCell id="A9HnPnSYlOHeTBeA_WHt-8" value="&lt;font style=&quot;font-size: 20px;&quot;&gt;P-004s NFUSs&lt;/font&gt;" style="rounded=0;whiteSpace=wrap;html=1;" vertex="1" parent="1">
          <mxGeometry x="3183" y="270" width="149" height="40.18" as="geometry" />
        </mxCell>
        <mxCell id="A9HnPnSYlOHeTBeA_WHt-9" value="&lt;font style=&quot;font-size: 20px;&quot;&gt;P-006s NFUSs&lt;/font&gt;" style="rounded=0;whiteSpace=wrap;html=1;" vertex="1" parent="1">
          <mxGeometry x="3183" y="320.09" width="150" height="39.91" as="geometry" />
        </mxCell>
        <mxCell id="A9HnPnSYlOHeTBeA_WHt-10" value="&lt;font style=&quot;font-size: 20px;&quot;&gt;P-002s NFUSs&lt;/font&gt;" style="rounded=0;whiteSpace=wrap;html=1;" vertex="1" parent="1">
          <mxGeometry x="3023" y="370" width="150" height="40" as="geometry" />
        </mxCell>
        <mxCell id="A9HnPnSYlOHeTBeA_WHt-11" value="&lt;font style=&quot;font-size: 20px;&quot;&gt;P-005s NFUSs&lt;/font&gt;" style="rounded=0;whiteSpace=wrap;html=1;" vertex="1" parent="1">
          <mxGeometry x="3023" y="420" width="150" height="39.91" as="geometry" />
        </mxCell>
        <mxCell id="A9HnPnSYlOHeTBeA_WHt-12" value="&lt;font style=&quot;font-size: 18px;&quot;&gt;P-001&#39;s FUSs&lt;/font&gt;" style="rounded=0;whiteSpace=wrap;html=1;" vertex="1" parent="1">
          <mxGeometry x="2873" y="560" width="139" height="40" as="geometry" />
        </mxCell>
        <mxCell id="A9HnPnSYlOHeTBeA_WHt-13" value="&lt;font style=&quot;font-size: 20px;&quot;&gt;P-004s FUSs&lt;/font&gt;" style="rounded=0;whiteSpace=wrap;html=1;" vertex="1" parent="1">
          <mxGeometry x="3194" y="610.09" width="139" height="39.91" as="geometry" />
        </mxCell>
        <mxCell id="A9HnPnSYlOHeTBeA_WHt-14" value="&lt;font style=&quot;font-size: 18px;&quot;&gt;P-006s FUSs&lt;/font&gt;" style="rounded=0;whiteSpace=wrap;html=1;" vertex="1" parent="1">
          <mxGeometry x="3194" y="660.09" width="139" height="39.91" as="geometry" />
        </mxCell>
        <mxCell id="A9HnPnSYlOHeTBeA_WHt-15" value="&lt;font style=&quot;font-size: 20px;&quot;&gt;P-002s FUSs&lt;/font&gt;" style="rounded=0;whiteSpace=wrap;html=1;" vertex="1" parent="1">
          <mxGeometry x="3034" y="720" width="139" height="40.09" as="geometry" />
        </mxCell>
        <mxCell id="A9HnPnSYlOHeTBeA_WHt-16" value="&lt;font style=&quot;font-size: 20px;&quot;&gt;P-005s FUSs&lt;/font&gt;" style="rounded=0;whiteSpace=wrap;html=1;" vertex="1" parent="1">
          <mxGeometry x="3034" y="770" width="139" height="40.09" as="geometry" />
        </mxCell>
        <mxCell id="A9HnPnSYlOHeTBeA_WHt-24" value="&lt;font style=&quot;font-size: 23px;&quot;&gt;&lt;font style=&quot;&quot;&gt;User group n&lt;/font&gt;&lt;span style=&quot;background-color: transparent; color: light-dark(rgb(0, 0, 0), rgb(255, 255, 255));&quot;&gt;&#39;s guidelines&lt;/span&gt;&lt;/font&gt;" style="rounded=0;whiteSpace=wrap;html=1;" vertex="1" parent="1">
          <mxGeometry x="-560" y="800" width="205" height="79.81" as="geometry" />
        </mxCell>
      </root>
    </mxGraphModel>
  </diagram>
</mxfile>
